<svg xmlns="http://www.w3.org/2000/svg" xmlns:xlink="http://www.w3.org/1999/xlink" width="1587" zoomAndPan="magnify" viewBox="0 0 1190.25 1683.749945" height="2245" preserveAspectRatio="xMidYMid meet" version="1.0"><defs><clipPath id="id1"><path d="M 0 0.40625 L 1189.5 0.40625 L 1189.5 1683.09375 L 0 1683.09375 Z M 0 0.40625 " clip-rule="nonzero"/></clipPath><clipPath id="id2"><path d="M 65.445312 290.511719 L 1124.972656 290.511719 L 1124.972656 1350 L 65.445312 1350 Z M 65.445312 290.511719 " clip-rule="nonzero"/></clipPath></defs><g clip-path="url(#id1)"><path fill="rgb(100%, 100%, 100%)" d="M 0 0.40625 L 1192.25 0.40625 L 1192.25 1694.296875 L 0 1694.296875 Z M 0 0.40625 " fill-opacity="1" fill-rule="nonzero"/><path fill="rgb(100%, 100%, 100%)" d="M 0 0.40625 L 1190 0.40625 L 1190 1683.800781 L 0 1683.800781 Z M 0 0.40625 " fill-opacity="1" fill-rule="nonzero"/><path fill="rgb(100%, 100%, 100%)" d="M 0 0.40625 L 1190 0.40625 L 1190 1683.800781 L 0 1683.800781 Z M 0 0.40625 " fill-opacity="1" fill-rule="nonzero"/><path fill="rgb(100%, 100%, 100%)" d="M 0 0.40625 L 1190 0.40625 L 1190 1683.800781 L 0 1683.800781 Z M 0 0.40625 " fill-opacity="1" fill-rule="nonzero"/></g><g clip-path="url(#id2)"><path fill="rgb(96.859741%, 72.158813%, 0.389099%)" d="M 998.046875 458.546875 C 977.324219 422.667969 939.753906 402.59375 901.101562 402.566406 L 901.105469 402.558594 C 862.457031 402.527344 824.875 382.453125 804.164062 346.578125 C 773.253906 293.035156 704.796875 274.695312 651.253906 305.613281 L 651.246094 305.617188 L 651.246094 305.582031 C 617.992188 324.742188 575.789062 326.257812 540.066406 306.003906 C 523.417969 296.195312 504.03125 290.570312 483.324219 290.570312 C 441.894531 290.570312 405.726562 313.082031 386.367188 346.539062 L 386.367188 346.53125 C 367.011719 379.980469 330.839844 402.492188 289.414062 402.492188 C 227.589844 402.492188 177.476562 452.605469 177.476562 514.429688 L 177.476562 514.441406 L 177.441406 514.429688 C 177.40625 552.789062 157.640625 590.074219 122.28125 610.890625 C 105.449219 620.394531 90.859375 634.382812 80.492188 652.335938 C 59.777344 688.222656 61.1875 730.796875 80.484375 764.285156 L 80.480469 764.285156 C 99.765625 797.773438 101.175781 840.351562 80.460938 876.230469 C 49.550781 929.765625 67.890625 998.222656 121.433594 1029.136719 L 121.4375 1029.144531 L 121.417969 1029.160156 C 154.875 1048.503906 177.375 1084.679688 177.375 1126.109375 C 177.375 1187.933594 227.488281 1238.046875 289.308594 1238.046875 C 330.742188 1238.046875 366.902344 1260.550781 386.269531 1294.011719 C 405.625 1327.453125 441.796875 1349.972656 483.222656 1349.972656 C 503.933594 1349.972656 523.316406 1344.335938 539.964844 1334.539062 C 575.675781 1314.289062 617.890625 1315.804688 651.140625 1334.96875 L 651.140625 1334.929688 L 651.148438 1334.941406 C 704.691406 1365.851562 773.148438 1347.503906 804.066406 1293.96875 C 824.777344 1258.09375 862.351562 1238.019531 901.003906 1237.992188 L 900.996094 1237.976562 C 939.644531 1237.945312 977.226562 1217.871094 997.933594 1182 C 1008.128906 1164.335938 1012.972656 1145.042969 1012.949219 1126.019531 L 1012.964844 1126.03125 C 1013 1088.75 1031.679688 1052.460938 1065.203125 1031.347656 C 1083.273438 1021.847656 1098.957031 1007.289062 1109.917969 988.308594 C 1130.636719 952.414062 1129.230469 909.839844 1109.929688 876.351562 L 1109.9375 876.351562 C 1090.644531 842.867188 1089.234375 800.289062 1109.953125 764.40625 C 1140.871094 710.863281 1122.523438 642.414062 1068.976562 611.5 L 1068.96875 611.488281 L 1068.992188 611.480469 C 1035.804688 592.277344 1013.398438 556.523438 1013.042969 515.507812 C 1013.238281 496.15625 1008.410156 476.511719 998.046875 458.546875 " fill-opacity="1" fill-rule="nonzero"/></g></svg>