<svg xmlns="http://www.w3.org/2000/svg" version="1.1" xmlns:xlink="http://www.w3.org/1999/xlink" xmlns:svgjs="http://svgjs.com/svgjs" width="1440" height="560" preserveAspectRatio="none" viewBox="0 0 1440 560">
    <g mask="url(&quot;#SvgjsMask1025&quot;)" fill="none">
        <rect width="1440" height="560" x="0" y="0" fill="#0e2a47"></rect>
        <path d="M917.277421773826 263.88907723820364L994.2736188584493 178.3761371617659 908.7606787820116 101.37994007714255 831.7644816973882 186.89288015358028z" fill="rgba(53, 104, 159, 0.4)" class="triangle-float1"></path>
        <path d="M1317.926,427.335C1362.949,431.267,1414.133,420.203,1435.359,380.304C1455.874,341.742,1430.105,298.088,1406.098,261.598C1385.18,229.803,1355.974,202.746,1317.926,201.813C1278.365,200.843,1240.704,222.244,1221.933,257.082C1204,290.365,1212.788,329.552,1231.356,362.485C1250.336,396.147,1279.429,423.973,1317.926,427.335" fill="rgba(53, 104, 159, 0.4)" class="triangle-float1"></path>
        <path d="M536.968,324.935C592.751,322.575,629.784,273.507,656.843,224.669C682.821,177.784,699.391,123.495,675.037,75.746C648.624,23.96,595.064,-8.27,536.968,-10.357C474.96,-12.585,411.074,11.131,380.575,65.166C350.485,118.477,366.563,183.167,398.138,235.613C428.558,286.141,478.043,327.428,536.968,324.935" fill="rgba(53, 104, 159, 0.4)" class="triangle-float3"></path>
        <path d="M203.94746024212606-6.647982825585807L55.88252517588427-63.48478624737021-0.9542782459001273 84.58014881887158 147.11065682034166 141.41695224065597z" fill="rgba(53, 104, 159, 0.4)" class="triangle-float1"></path>
        <path d="M189.2403194929187 360.98011986343164L186.87300642660995 496.60339460025557 322.4962811634339 498.9707076665643 324.8635942297426 363.34743292974036z" fill="rgba(53, 104, 159, 0.4)" class="triangle-float3"></path>
        <path d="M1045.411007617463 251.98405767421193L947.8562697613133 225.84434444782676 957.4240688498104 385.24630784524373z" fill="rgba(53, 104, 159, 0.4)" class="triangle-float2"></path>
        <path d="M1331.744126060043 418.43843352022157L1468.1319246342596 423.20120039571873 1472.8946915097567 286.8134018215022 1336.5068929355402 282.05063494600506z" fill="rgba(53, 104, 159, 0.4)" class="triangle-float1"></path>
        <path d="M957.3467871654655 115.96565624472859L1025.2620411373061 7.278530264999418 848.6596611857362 48.05040227288782z" fill="rgba(53, 104, 159, 0.4)" class="triangle-float1"></path>
        <path d="M325.4800685200269 138.71166343513033L329.5139501701793 23.19640678805969 213.9986935231087 19.162525137907267 209.96481187295626 134.6777817849779z" fill="rgba(53, 104, 159, 0.4)" class="triangle-float2"></path>
        <path d="M1013.4334861809114 89.50508566403147L920.1899227191528 250.6528083095714 1082.9156386631894 253.49319624686527z" fill="rgba(53, 104, 159, 0.4)" class="triangle-float2"></path>
        <path d="M843.7053451436374 413.9020766331507L713.6515005141912 308.58654979660105 608.3359736776415 438.6403944260472 738.3898183070877 543.9559212625968z" fill="rgba(53, 104, 159, 0.4)" class="triangle-float3"></path>
    </g>
    <defs>
        <mask id="SvgjsMask1025">
            <rect width="1440" height="560" fill="#ffffff"></rect>
        </mask>
        <style>
            @keyframes float1 {
                0%{transform: translate(0, 0)}
                50%{transform: translate(-10px, 0)}
                100%{transform: translate(0, 0)}
            }

            .triangle-float1 {
                animation: float1 5s infinite;
            }

            @keyframes float2 {
                0%{transform: translate(0, 0)}
                50%{transform: translate(-5px, -5px)}
                100%{transform: translate(0, 0)}
            }

            .triangle-float2 {
                animation: float2 4s infinite;
            }

            @keyframes float3 {
                0%{transform: translate(0, 0)}
                50%{transform: translate(0, -10px)}
                100%{transform: translate(0, 0)}
            }

            .triangle-float3 {
                animation: float3 6s infinite;
            }
        </style>
    </defs>
</svg>