<svg width="164" height="175" viewBox="0 0 164 175" fill="none" xmlns="http://www.w3.org/2000/svg">
<path d="M144.354 27.7476C141.146 21.8209 135.331 18.5049 129.348 18.5004L129.349 18.4991C123.366 18.4939 117.549 15.1779 114.343 9.25179C109.559 0.407161 98.9627 -2.62235 90.675 2.48491L90.6738 2.48556V2.47975C85.5266 5.64477 78.9941 5.89513 73.4647 2.54944C70.8878 0.92918 67.887 0 64.6818 0C58.2691 0 52.6708 3.71865 49.6743 9.24534V9.24405C46.6783 14.7694 41.0794 18.4881 34.6673 18.4881C25.0978 18.4881 17.3409 26.7662 17.3409 36.9788V36.9807L17.3355 36.9788C17.33 43.3153 14.2706 49.4743 8.79746 52.9129C6.19209 54.4828 3.93379 56.7935 2.3291 59.7592C-0.877271 65.6872 -0.658999 72.7199 2.32789 78.2518C5.31296 83.7836 5.53063 90.817 2.32426 96.7437C-2.4602 105.587 0.378551 116.895 8.66625 122.002L8.66686 122.003L8.66383 122.006C13.8425 125.201 17.3252 131.177 17.3252 138.021C17.3252 148.233 25.082 156.511 34.6509 156.511C41.0643 156.511 46.6614 160.229 49.6591 165.756C52.6551 171.28 58.254 175 64.6661 175C67.8719 175 70.8721 174.069 73.449 172.451C78.9766 169.106 85.5108 169.356 90.6575 172.522V172.515L90.6587 172.517C98.9464 177.623 109.543 174.592 114.328 165.749C117.534 159.823 123.35 156.507 129.333 156.502L129.332 156.5C135.314 156.494 141.131 153.178 144.336 147.253C145.914 144.335 146.664 141.148 146.66 138.006L146.663 138.008C146.668 131.849 149.56 125.855 154.749 122.367C157.546 120.798 159.973 118.393 161.67 115.258C164.877 109.328 164.659 102.296 161.672 96.7637H161.673C158.687 91.2325 158.468 84.1992 161.675 78.2718C166.461 69.4271 163.621 58.1202 155.333 53.0136L155.331 53.0116L155.335 53.0103C150.198 49.8382 146.73 43.9321 146.675 37.1569C146.705 33.9602 145.958 30.7152 144.354 27.7476Z" fill="#0E2A47"/>
</svg>


