<svg width="80" height="44" viewBox="0 0 80 44" fill="none" xmlns="http://www.w3.org/2000/svg">
<path d="M57.8142 28.8985C57.1727 28.3598 56.6674 27.8836 56.0909 27.46C54.1666 26.0555 52.3074 24.593 50.2473 23.3039C48.0249 21.9136 44.8314 22.289 42.7839 23.9005C42.2723 24.2995 41.3717 24.4246 40.562 24.7038C40.2119 25.3483 41.0412 25.6322 41.5532 25.9929C46.1984 29.2689 49.8066 33.1365 52.9359 37.2401C54.1343 38.8084 54.9377 40.5497 55.8447 42.2334C56.5571 43.5565 56.6481 43.7438 58.5916 43.6284C62.0577 43.4217 65.0764 42.5462 67.2597 40.3334C71.0629 36.4897 75.1638 32.8048 78.0143 28.4896C78.4743 27.7874 78.8173 27.0417 79.4525 25.8871C76.6083 26.2671 74.2694 26.2528 72.7666 27.9315C71.8466 28.9611 70.9073 29.976 69.6372 31.3809C69.3135 29.9038 69.1127 28.8842 68.8665 27.874C67.0073 20.2588 62.8804 13.3894 55.1386 8.15545C48.0962 3.38806 39.8231 0.0927719 29.9047 0.00156914C21.5733 -0.0706331 14.4211 2.35384 8.1695 6.25042C5.66871 7.81373 3.55033 9.72373 1.32798 11.5226C0.751417 11.9895 0.433995 12.6244 0 13.1871C0.168557 13.3075 0.33672 13.4277 0.505277 13.5481C1.52883 13.0766 2.59137 12.6437 3.55663 12.1146C4.15918 11.7825 4.62547 11.311 5.13075 10.8877C11.6096 5.44714 19.7917 3.99432 29.0627 5.47578C36.1436 6.60646 41.9935 9.43989 46.9108 13.3219C52.1065 17.4157 55.6309 22.2358 57.743 27.6334C57.8402 27.874 57.9178 28.1192 57.9698 28.3645C57.9824 28.4753 57.9048 28.5954 57.8142 28.8985Z" fill="#F18701"/>
</svg>
